<svg width="1377" height="1072" viewBox="0 0 1377 1072" version="1.1" xmlns="http://www.w3.org/2000/svg" xmlns:xlink="http://www.w3.org/1999/xlink">
<title>logo</title>
<desc>Created using Figma</desc>
<g id="Canvas" transform="translate(-12054 -6409)">
<g id="logo">
<g id="logo">
<g id="Vector">
<use xlink:href="#path0_fill" transform="translate(12396.9 6409)" fill="#425AFF"/>
</g>
<g id="Vector">
<use xlink:href="#path1_fill" transform="translate(12717.5 6729.59)" fill="#2F44CC"/>
<use xlink:href="#path2_fill" transform="translate(12717.5 6729.59)" fill="#2F44CC"/>
</g>
</g>
<g id="exaquark">
<use xlink:href="#path3_fill" transform="translate(12042 7096.43)" fill="#333333"/>
</g>
</g>
</g>
<defs>
<path id="path0_fill" d="M 320.594 140.648C 367.7 140.741 414.776 158.758 450.716 194.698C 483.084 227.066 500.914 268.466 504.207 310.785L 641.036 310.785C 635.851 138.264 494.367 0 320.589 0C 301.225 0.000330089 282.262 1.71749 263.843 5.00751C 261.212 5.47752 258.592 5.97962 255.983 6.5134C 109.894 36.4077 0 165.668 0 320.595C 0 494.264 138.092 635.681 310.463 641.032L 310.463 509.469C 266.541 507.156 223.288 489.225 189.739 455.676C 152.537 418.474 134.54 369.341 135.745 320.595C 136.875 274.909 154.873 229.564 189.739 194.698C 225.864 158.573 273.241 140.556 320.589 140.648L 320.594 140.648Z"/>
<path id="path1_fill" d="M 346.416 250.921C 373.441 277.946 373.441 321.763 346.416 348.788C 319.391 375.813 275.575 375.813 248.549 348.788C 221.524 321.763 221.524 277.946 248.549 250.921C 275.575 223.896 319.391 223.896 346.416 250.921Z"/>
<path id="path2_fill" fill-rule="evenodd" d="M 10.1542 188.833L 10.1542 320.437C 179.156 315.179 315.2 179.122 320.438 10.1147L 184.096 10.1147C 182.746 55.4849 164.756 100.452 130.127 135.081C 96.7695 168.439 53.818 186.356 10.1542 188.833Z"/>
<path id="path3_fill" d="M 166.4 241.4C 166.4 198.84 137.28 162.68 91.84 162.68C 46.4 162.68 12.8 198.84 12.8 244.92C 12.8 291 46.4 327.16 95.36 327.16C 118.08 327.16 138.56 318.2 153.6 303.16C 156.16 300.6 156.16 298.36 153.92 296.12L 139.84 282.36C 137.6 280.12 135.68 280.12 132.8 282.04C 121.92 289.72 112 292.92 99.52 292.92C 74.88 292.92 58.88 281.08 54.72 260.28L 155.2 260.28C 164.8 260.28 166.4 253.88 166.4 241.4ZM 92.16 198.52C 111.04 198.52 126.08 210.68 128.96 232.76L 54.08 232.76C 57.6 210.68 72.96 198.52 92.16 198.52ZM 327.605 317.24L 276.405 242.68L 325.045 171.96C 327.285 168.76 325.685 166.2 321.845 166.2L 284.725 166.2C 282.165 166.2 280.565 167.16 278.965 169.4L 252.405 210.68L 225.845 169.4C 224.245 167.16 222.645 166.2 220.085 166.2L 182.965 166.2C 179.125 166.2 177.525 168.76 179.765 171.96L 228.405 242.68L 177.205 317.24C 174.965 320.44 176.565 323 180.405 323L 217.525 323C 220.085 323 221.685 322.04 223.285 319.8L 252.405 274.68L 281.525 319.8C 283.125 322.04 284.725 323 287.285 323L 324.405 323C 328.245 323 329.845 320.44 327.605 317.24ZM 497.145 166.2L 467.705 166.2C 464.825 166.2 463.225 168.12 462.905 171L 461.945 185.72C 450.105 172.28 434.105 162.68 414.265 162.68C 370.425 162.68 338.425 199.16 338.425 244.92C 338.425 290.68 370.425 327.16 414.265 327.16C 434.745 327.16 450.425 317.88 461.625 304.76L 462.905 318.2C 463.225 321.08 464.825 323 467.705 323L 497.145 323C 500.025 323 501.945 321.08 501.945 318.2L 501.945 171C 501.945 168.12 500.025 166.2 497.145 166.2ZM 419.385 288.76C 396.025 288.76 379.065 269.88 379.065 244.6C 379.065 219.64 396.025 201.08 419.385 201.08C 442.425 201.08 459.385 220.92 459.385 244.6C 459.385 268.28 442.425 288.76 419.385 288.76ZM 691.208 166.2L 661.768 166.2C 658.888 166.2 657.288 168.12 656.967 171L 656.007 185.72C 644.167 172.28 628.167 162.68 608.328 162.68C 564.488 162.68 532.487 199.16 532.487 244.92C 532.487 290.68 564.488 327.16 608.328 327.16C 627.528 327.16 642.568 319.16 653.767 307.32L 653.767 379C 653.767 381.88 655.688 383.8 658.567 383.8L 691.208 383.8C 694.088 383.8 696.007 381.88 696.007 379L 696.007 171C 696.007 168.12 694.088 166.2 691.208 166.2ZM 613.448 288.76C 590.087 288.76 573.127 269.88 573.127 244.6C 573.127 219.64 590.087 201.08 613.448 201.08C 636.488 201.08 653.448 220.92 653.448 244.6C 653.448 268.28 636.488 288.76 613.448 288.76ZM 873.43 166.2L 840.79 166.2C 837.91 166.2 835.99 168.12 835.99 171L 835.99 257.72C 835.99 268.92 824.79 288.12 802.07 288.12C 787.03 288.12 771.99 279.16 771.99 253.24L 771.99 171C 771.99 168.12 770.07 166.2 767.19 166.2L 734.55 166.2C 731.67 166.2 729.75 168.12 729.75 171L 729.75 260.92C 729.75 302.84 754.07 327.16 789.27 327.16C 809.11 327.16 825.11 315.96 835.99 300.6L 837.27 318.2C 837.59 321.08 839.19 323 842.07 323L 873.43 323C 876.31 323 878.23 321.08 878.23 318.2L 878.23 171C 878.23 168.12 876.31 166.2 873.43 166.2ZM 1067.46 166.2L 1038.02 166.2C 1035.14 166.2 1033.54 168.12 1033.22 171L 1032.26 185.72C 1020.42 172.28 1004.42 162.68 984.578 162.68C 940.738 162.68 908.737 199.16 908.737 244.92C 908.737 290.68 940.738 327.16 984.578 327.16C 1005.06 327.16 1020.74 317.88 1031.94 304.76L 1033.22 318.2C 1033.54 321.08 1035.14 323 1038.02 323L 1067.46 323C 1070.34 323 1072.26 321.08 1072.26 318.2L 1072.26 171C 1072.26 168.12 1070.34 166.2 1067.46 166.2ZM 989.698 288.76C 966.337 288.76 949.377 269.88 949.377 244.6C 949.377 219.64 966.337 201.08 989.698 201.08C 1012.74 201.08 1029.7 220.92 1029.7 244.6C 1029.7 268.28 1012.74 288.76 989.698 288.76ZM 1210.64 170.04C 1206.16 166.2 1198.48 162.68 1189.52 162.68C 1170.64 162.68 1157.84 173.24 1149.52 188.28L 1148.24 171C 1147.92 168.12 1146.32 166.2 1143.44 166.2L 1112.4 166.2C 1109.52 166.2 1107.6 168.12 1107.6 171L 1107.6 318.2C 1107.6 321.08 1109.52 323 1112.4 323L 1145.04 323C 1147.92 323 1149.84 321.08 1149.84 318.2L 1149.84 235C 1149.84 215.8 1162.64 201.08 1182.48 201.08C 1188.56 201.08 1192.4 202.36 1195.6 203.32C 1198.8 204.28 1201.36 203.64 1202.64 200.12L 1212.24 176.44C 1213.2 174.2 1213.2 171.96 1210.64 170.04ZM 1387.47 317.24L 1322.83 231.16L 1378.19 171.96C 1381.07 169.08 1379.79 166.2 1375.62 166.2L 1338.82 166.2C 1336.58 166.2 1334.67 166.84 1333.07 168.76L 1275.47 230.84L 1275.47 94.2C 1275.47 91.32 1273.54 89.4 1270.67 89.4L 1238.03 89.4C 1235.15 89.4 1233.22 91.32 1233.22 94.2L 1233.22 318.2C 1233.22 321.08 1235.15 323 1238.03 323L 1270.67 323C 1273.54 323 1275.47 321.08 1275.47 318.2L 1275.47 281.72L 1297.22 258.68L 1343.63 320.12C 1345.23 322.36 1346.82 323 1349.39 323L 1384.58 323C 1388.43 323 1389.71 320.44 1387.47 317.24Z"/>
</defs>
</svg>
