<svg width="500" height="423" viewBox="0 0 500 423" version="1.1" xmlns="http://www.w3.org/2000/svg" xmlns:xlink="http://www.w3.org/1999/xlink">
<title>logo</title>
<desc>Created using Figma</desc>
<g id="Canvas" transform="matrix(0.22686 0 0 0.22686 -4368.19 -2126.13)">
<clipPath id="clip-0" clip-rule="evenodd">
<path d="M 19255 9372L 21459 9372L 21459 11234L 19255 11234L 19255 9372Z" fill="#FFFFFF"/>
</clipPath>
<g id="logo" clip-path="url(#clip-0)">
<g id="logo">
<g id="infinitely connected worlds.">
<use xlink:href="#path0_fill" transform="translate(19670.4 11031.4)" fill="#425AFF"/>
<use xlink:href="#path1_fill" transform="translate(19670.4 11031.4)" fill="#425AFF"/>
<use xlink:href="#path2_fill" transform="translate(19670.4 11031.4)" fill="#425AFF"/>
<use xlink:href="#path3_fill" transform="translate(19670.4 11031.4)" fill="#425AFF"/>
<use xlink:href="#path4_fill" transform="translate(19670.4 11031.4)" fill="#425AFF"/>
<use xlink:href="#path5_fill" transform="translate(19670.4 11031.4)" fill="#425AFF"/>
<use xlink:href="#path6_fill" transform="translate(19670.4 11031.4)" fill="#425AFF"/>
<use xlink:href="#path7_fill" transform="translate(19670.4 11031.4)" fill="#425AFF"/>
<use xlink:href="#path8_fill" transform="translate(19670.4 11031.4)" fill="#425AFF"/>
<use xlink:href="#path9_fill" transform="translate(19670.4 11031.4)" fill="#425AFF"/>
<use xlink:href="#path10_fill" transform="translate(19670.4 11031.4)" fill="#425AFF"/>
<use xlink:href="#path11_fill" transform="translate(19670.4 11031.4)" fill="#425AFF"/>
<use xlink:href="#path12_fill" transform="translate(19670.4 11031.4)" fill="#425AFF"/>
<use xlink:href="#path13_fill" transform="translate(19670.4 11031.4)" fill="#425AFF"/>
<use xlink:href="#path14_fill" transform="translate(19670.4 11031.4)" fill="#425AFF"/>
<use xlink:href="#path15_fill" transform="translate(19670.4 11031.4)" fill="#425AFF"/>
<use xlink:href="#path16_fill" transform="translate(19670.4 11031.4)" fill="#425AFF"/>
<use xlink:href="#path17_fill" transform="translate(19670.4 11031.4)" fill="#425AFF"/>
<use xlink:href="#path18_fill" transform="translate(19670.4 11031.4)" fill="#425AFF"/>
<use xlink:href="#path19_fill" transform="translate(19670.4 11031.4)" fill="#425AFF"/>
<use xlink:href="#path20_fill" transform="translate(19670.4 11031.4)" fill="#425AFF"/>
<use xlink:href="#path21_fill" transform="translate(19670.4 11031.4)" fill="#425AFF"/>
<use xlink:href="#path22_fill" transform="translate(19670.4 11031.4)" fill="#425AFF"/>
<use xlink:href="#path23_fill" transform="translate(19670.4 11031.4)" fill="#425AFF"/>
<use xlink:href="#path24_fill" transform="translate(19670.4 11031.4)" fill="#425AFF"/>
</g>
<g id="logo">
<g id="Vector">
<use xlink:href="#path25_fill" transform="translate(20005.9 9907.24)" fill="#425AFF"/>
</g>
<g id="Vector">
<use xlink:href="#path26_fill" transform="translate(20326.5 10227.8)" fill="#2F44CC"/>
<use xlink:href="#path27_fill" transform="translate(20326.5 10227.8)" fill="#2F44CC"/>
</g>
</g>
<g id="exaquark">
<use xlink:href="#path28_fill" transform="translate(19651 10594.7)" fill="#333333"/>
</g>
</g>
</g>
</g>
<defs>
<path id="path0_fill" d="M 7.92188 16.6034C 12.2626 16.6034 15.7352 13.0223 15.7352 8.68151C 15.7352 4.34076 12.2626 0.759633 7.92188 0.759633C 3.47261 0.759633 0 4.34076 0 8.68151C 0 13.0223 3.47261 16.6034 7.92188 16.6034ZM 0.759633 28.3234L 0.759633 78.2422C 0.759633 79.2188 1.41075 79.8699 2.38742 79.8699L 13.4563 79.8699C 14.433 79.8699 15.0841 79.2188 15.0841 78.2422L 15.0841 28.3234C 15.0841 27.3468 14.433 26.6957 13.4563 26.6957L 2.38742 26.6957C 1.41075 26.6957 0.759633 27.3468 0.759633 28.3234Z"/>
<path id="path1_fill" d="M 58.2874 25.5019C 50.5825 25.5019 44.9396 29.7342 41.4669 35.3772L 41.4669 35.2687L 41.0329 28.3234C 40.9244 27.3468 40.3818 26.6957 39.4051 26.6957L 28.7702 26.6957C 27.7936 26.6957 27.1425 27.3468 27.1425 28.3234L 27.1425 78.2422C 27.1425 79.2188 27.7936 79.8699 28.7702 79.8699L 39.8392 79.8699C 40.8158 79.8699 41.4669 79.2188 41.4669 78.2422L 41.4669 49.1591C 41.4669 46.6631 45.1566 38.7413 53.187 38.7413C 58.3959 38.7413 63.1707 41.7798 63.1707 50.5698L 63.1707 78.2422C 63.1707 79.2188 63.8218 79.8699 64.7985 79.8699L 75.8674 79.8699C 76.8441 79.8699 77.4952 79.2188 77.4952 78.2422L 77.4952 47.9654C 77.4952 33.7494 69.1393 25.5019 58.2874 25.5019Z"/>
<path id="path2_fill" d="M 120.543 1.84482C 118.264 0.542595 115.226 0 111.645 0C 100.25 0 93.0881 5.7515 93.0881 17.6886L 93.0881 26.6957L 86.794 26.6957C 85.8173 26.6957 85.1662 27.3468 85.1662 28.3234L 85.1662 36.7879C 85.1662 37.7646 85.8173 38.4157 86.794 38.4157L 93.0881 38.4157L 93.0881 78.2422C 93.0881 79.2188 93.7392 79.8699 94.7158 79.8699L 105.785 79.8699C 106.761 79.8699 107.413 79.2188 107.413 78.2422L 107.413 38.4157L 118.699 38.4157C 119.675 38.4157 120.326 37.7646 120.326 36.7879L 120.326 28.3234C 120.326 27.3468 119.675 26.6957 118.699 26.6957L 107.413 26.6957L 107.413 19.5334C 107.413 15.5182 108.172 12.8052 113.381 12.8052C 115.443 12.8052 117.613 13.3478 119.675 14.5415C 120.76 15.1927 121.629 14.7586 121.629 13.4563L 121.629 3.79816C 121.629 2.93001 121.303 2.2789 120.543 1.84482ZM 135.519 16.6034C 139.86 16.6034 143.332 13.0223 143.332 8.68151C 143.332 4.34076 139.86 0.759633 135.519 0.759633C 131.07 0.759633 127.597 4.34076 127.597 8.68151C 127.597 13.0223 131.07 16.6034 135.519 16.6034ZM 141.053 26.6957L 129.984 26.6957C 129.008 26.6957 128.357 27.3468 128.357 28.3234L 128.357 78.2422C 128.357 79.2188 129.008 79.8699 129.984 79.8699L 141.053 79.8699C 142.03 79.8699 142.681 79.2188 142.681 78.2422L 142.681 28.3234C 142.681 27.3468 142.03 26.6957 141.053 26.6957Z"/>
<path id="path3_fill" d="M 185.882 25.5019C 178.177 25.5019 172.534 29.7342 169.061 35.3772L 169.061 35.2687L 168.627 28.3234C 168.519 27.3468 167.976 26.6957 167 26.6957L 156.365 26.6957C 155.388 26.6957 154.737 27.3468 154.737 28.3234L 154.737 78.2422C 154.737 79.2188 155.388 79.8699 156.365 79.8699L 167.434 79.8699C 168.41 79.8699 169.061 79.2188 169.061 78.2422L 169.061 49.1591C 169.061 46.6631 172.751 38.7413 180.782 38.7413C 185.99 38.7413 190.765 41.7798 190.765 50.5698L 190.765 78.2422C 190.765 79.2188 191.416 79.8699 192.393 79.8699L 203.462 79.8699C 204.439 79.8699 205.09 79.2188 205.09 78.2422L 205.09 47.9654C 205.09 33.7494 196.734 25.5019 185.882 25.5019Z"/>
<path id="path4_fill" d="M 224.43 16.6034C 228.771 16.6034 232.243 13.0223 232.243 8.68151C 232.243 4.34076 228.771 0.759633 224.43 0.759633C 219.981 0.759633 216.508 4.34076 216.508 8.68151C 216.508 13.0223 219.981 16.6034 224.43 16.6034ZM 217.268 28.3234L 217.268 78.2422C 217.268 79.2188 217.919 79.8699 218.895 79.8699L 229.964 79.8699C 230.941 79.8699 231.592 79.2188 231.592 78.2422L 231.592 28.3234C 231.592 27.3468 230.941 26.6957 229.964 26.6957L 218.895 26.6957C 217.919 26.6957 217.268 27.3468 217.268 28.3234Z"/>
<path id="path5_fill" d="M 271.459 26.6957L 263.863 26.6957L 263.863 12.0456C 263.863 11.0689 263.212 10.4178 262.235 10.4178L 251.166 10.4178C 250.19 10.4178 249.538 11.0689 249.538 12.0456L 249.538 26.6957L 241.942 26.6957C 240.965 26.6957 240.314 27.3468 240.314 28.3234L 240.314 36.7879C 240.314 37.7646 240.965 38.4157 241.942 38.4157L 249.538 38.4157L 249.538 78.2422C 249.538 79.2188 250.19 79.8699 251.166 79.8699L 262.235 79.8699C 263.212 79.8699 263.863 79.2188 263.863 78.2422L 263.863 38.4157L 271.459 38.4157C 272.436 38.4157 273.087 37.7646 273.087 36.7879L 273.087 28.3234C 273.087 27.3468 272.436 26.6957 271.459 26.6957Z"/>
<path id="path6_fill" d="M 332.263 52.1976C 332.263 37.7646 322.388 25.5019 306.978 25.5019C 291.568 25.5019 280.174 37.7646 280.174 53.3913C 280.174 69.018 291.568 81.2807 308.172 81.2807C 315.877 81.2807 322.822 78.2421 327.922 73.1418C 328.79 72.2736 328.79 71.514 328.031 70.7543L 323.256 66.088C 322.496 65.3284 321.845 65.3284 320.868 65.9795C 317.179 68.584 313.815 69.6692 309.582 69.6692C 301.227 69.6692 295.801 65.654 294.39 58.6002L 328.465 58.6002C 331.72 58.6002 332.263 56.4298 332.263 52.1976ZM 307.087 37.6561C 313.489 37.6561 318.59 41.7798 319.566 49.2676L 294.173 49.2676C 295.367 41.7798 300.575 37.6561 307.087 37.6561Z"/>
<path id="path7_fill" d="M 342.526 2.2789L 342.526 78.2422C 342.526 79.2188 343.177 79.8699 344.153 79.8699L 355.222 79.8699C 356.199 79.8699 356.85 79.2188 356.85 78.2422L 356.85 2.2789C 356.85 1.30223 356.199 0.651114 355.222 0.651114L 344.153 0.651114C 343.177 0.651114 342.526 1.30223 342.526 2.2789Z"/>
<path id="path8_fill" d="M 420.134 26.6957L 408.74 26.6957C 407.872 26.6957 407.112 27.1297 406.787 27.9979L 393.873 63.158L 380.851 27.9979C 380.525 27.1297 379.765 26.6957 378.897 26.6957L 367.72 26.6957C 366.526 26.6957 365.983 27.3468 366.418 28.5405L 386.928 79.9785L 379.223 98.6437C 378.68 99.8374 379.331 100.489 380.525 100.489L 391.377 100.489C 392.245 100.489 393.005 100.054 393.33 99.1863L 421.437 28.5405C 421.871 27.3468 421.328 26.6957 420.134 26.6957Z"/>
<path id="path9_fill" d="M 487.258 68.0414C 479.227 68.0414 473.584 61.7473 473.584 53.3913C 473.584 45.0354 479.227 38.7413 487.258 38.7413C 492.141 38.7413 495.288 40.8031 498.327 43.5161C 499.195 44.2757 499.954 44.3842 500.714 43.6246L 507.334 37.222C 507.985 36.5709 508.093 35.7027 507.442 34.9431C 502.45 29.1916 495.18 25.5019 486.932 25.5019C 471.631 25.5019 459.802 37.7646 459.802 53.3913C 459.802 69.018 471.631 81.2807 486.932 81.2807C 495.397 81.2807 502.776 77.591 507.768 71.8395C 508.419 71.0799 508.31 70.2117 507.659 69.5606L 501.04 63.2665C 500.28 62.5069 499.52 62.5069 498.652 63.2665C 495.614 65.9795 492.358 68.0414 487.258 68.0414Z"/>
<path id="path10_fill" d="M 542.367 81.2807C 557.669 81.2807 569.931 69.018 569.931 53.3913C 569.931 37.7646 557.669 25.5019 542.367 25.5019C 527.066 25.5019 514.804 37.7646 514.804 53.3913C 514.804 69.018 527.066 81.2807 542.367 81.2807ZM 542.367 68.0414C 534.663 68.0414 528.586 61.9643 528.586 53.3913C 528.586 44.8183 534.663 38.7413 542.367 38.7413C 549.964 38.7413 556.149 44.8183 556.149 53.3913C 556.149 61.9643 549.964 68.0414 542.367 68.0414Z"/>
<path id="path11_fill" d="M 611.374 25.5019C 603.669 25.5019 598.026 29.7342 594.553 35.3772L 594.553 35.2687L 594.119 28.3234C 594.011 27.3468 593.468 26.6957 592.491 26.6957L 581.856 26.6957C 580.88 26.6957 580.229 27.3468 580.229 28.3234L 580.229 78.2422C 580.229 79.2188 580.88 79.8699 581.856 79.8699L 592.925 79.8699C 593.902 79.8699 594.553 79.2188 594.553 78.2422L 594.553 49.1591C 594.553 46.6631 598.243 38.7413 606.273 38.7413C 611.482 38.7413 616.257 41.7798 616.257 50.5698L 616.257 78.2422C 616.257 79.2188 616.908 79.8699 617.885 79.8699L 628.954 79.8699C 629.93 79.8699 630.581 79.2188 630.581 78.2422L 630.581 47.9654C 630.581 33.7494 622.226 25.5019 611.374 25.5019Z"/>
<path id="path12_fill" d="M 673.687 25.5019C 665.982 25.5019 660.339 29.7342 656.867 35.3772L 656.867 35.2687L 656.433 28.3234C 656.324 27.3468 655.782 26.6957 654.805 26.6957L 644.17 26.6957C 643.193 26.6957 642.542 27.3468 642.542 28.3234L 642.542 78.2422C 642.542 79.2188 643.193 79.8699 644.17 79.8699L 655.239 79.8699C 656.216 79.8699 656.867 79.2188 656.867 78.2422L 656.867 49.1591C 656.867 46.6631 660.556 38.7413 668.587 38.7413C 673.796 38.7413 678.571 41.7798 678.571 50.5698L 678.571 78.2422C 678.571 79.2188 679.222 79.8699 680.198 79.8699L 691.267 79.8699C 692.244 79.8699 692.895 79.2188 692.895 78.2422L 692.895 47.9654C 692.895 33.7494 684.539 25.5019 673.687 25.5019Z"/>
<path id="path13_fill" d="M 755.317 52.1976C 755.317 37.7646 745.442 25.5019 730.032 25.5019C 714.623 25.5019 703.228 37.7646 703.228 53.3913C 703.228 69.018 714.623 81.2807 731.226 81.2807C 738.931 81.2807 745.876 78.2421 750.977 73.1418C 751.845 72.2736 751.845 71.514 751.085 70.7543L 746.31 66.088C 745.55 65.3284 744.899 65.3284 743.923 65.9795C 740.233 68.584 736.869 69.6692 732.637 69.6692C 724.281 69.6692 718.855 65.654 717.444 58.6002L 751.519 58.6002C 754.775 58.6002 755.317 56.4298 755.317 52.1976ZM 730.141 37.6561C 736.543 37.6561 741.644 41.7798 742.62 49.2676L 717.227 49.2676C 718.421 41.7798 723.63 37.6561 730.141 37.6561Z"/>
<path id="path14_fill" d="M 790.878 68.0414C 782.847 68.0414 777.204 61.7473 777.204 53.3913C 777.204 45.0354 782.847 38.7413 790.878 38.7413C 795.761 38.7413 798.908 40.8031 801.946 43.5161C 802.815 44.2757 803.574 44.3842 804.334 43.6246L 810.953 37.222C 811.605 36.5709 811.713 35.7027 811.062 34.9431C 806.07 29.1916 798.799 25.5019 790.552 25.5019C 775.251 25.5019 763.422 37.7646 763.422 53.3913C 763.422 69.018 775.251 81.2807 790.552 81.2807C 799.016 81.2807 806.396 77.591 811.388 71.8395C 812.039 71.0799 811.93 70.2117 811.279 69.5606L 804.659 63.2665C 803.9 62.5069 803.14 62.5069 802.272 63.2665C 799.233 65.9795 795.978 68.0414 790.878 68.0414Z"/>
<path id="path15_fill" d="M 850.086 26.6957L 842.489 26.6957L 842.489 12.0456C 842.489 11.0689 841.838 10.4178 840.862 10.4178L 829.793 10.4178C 828.816 10.4178 828.165 11.0689 828.165 12.0456L 828.165 26.6957L 820.568 26.6957C 819.592 26.6957 818.941 27.3468 818.941 28.3234L 818.941 36.7879C 818.941 37.7646 819.592 38.4157 820.568 38.4157L 828.165 38.4157L 828.165 78.2422C 828.165 79.2188 828.816 79.8699 829.793 79.8699L 840.862 79.8699C 841.838 79.8699 842.489 79.2188 842.489 78.2422L 842.489 38.4157L 850.086 38.4157C 851.062 38.4157 851.713 37.7646 851.713 36.7879L 851.713 28.3234C 851.713 27.3468 851.062 26.6957 850.086 26.6957Z"/>
<path id="path16_fill" d="M 910.889 52.1976C 910.889 37.7646 901.014 25.5019 885.604 25.5019C 870.195 25.5019 858.8 37.7646 858.8 53.3913C 858.8 69.018 870.195 81.2807 886.798 81.2807C 894.503 81.2807 901.448 78.2421 906.549 73.1418C 907.417 72.2736 907.417 71.514 906.657 70.7543L 901.882 66.088C 901.123 65.3284 900.471 65.3284 899.495 65.9795C 895.805 68.584 892.441 69.6692 888.209 69.6692C 879.853 69.6692 874.427 65.654 873.016 58.6002L 907.091 58.6002C 910.347 58.6002 910.889 56.4298 910.889 52.1976ZM 885.713 37.6561C 892.116 37.6561 897.216 41.7798 898.193 49.2676L 872.799 49.2676C 873.993 41.7798 879.202 37.6561 885.713 37.6561Z"/>
<path id="path17_fill" d="M 972.82 0.651114L 961.751 0.651114C 960.774 0.651114 960.123 1.30223 960.123 2.2789L 960.123 32.4472C 956.216 28.3234 951.007 25.5019 944.713 25.5019C 929.846 25.5019 918.994 37.8731 918.994 53.3913C 918.994 68.9095 929.846 81.2807 944.713 81.2807C 951.658 81.2807 956.976 78.1336 960.774 73.6844L 961.208 78.2422C 961.317 79.2188 961.859 79.8699 962.836 79.8699L 972.82 79.8699C 973.796 79.8699 974.447 79.2188 974.447 78.2422L 974.447 2.2789C 974.447 1.30223 973.796 0.651114 972.82 0.651114ZM 946.45 68.2584C 938.528 68.2584 932.776 61.8558 932.776 53.2828C 932.776 44.8183 938.528 38.5242 946.45 38.5242C 954.263 38.5242 960.014 45.2524 960.014 53.2828C 960.014 61.3132 954.263 68.2584 946.45 68.2584Z"/>
<path id="path18_fill" d="M 1104.97 26.6957L 1094.11 26.6957C 1093.25 26.6957 1092.49 27.1297 1092.16 27.9979L 1080.11 63.2665L 1067.42 27.9979C 1067.2 27.4553 1066.88 27.0212 1066.33 26.9127C 1066.12 26.8042 1065.79 26.6957 1065.46 26.6957L 1055.26 26.6957C 1054.94 26.6957 1054.61 26.8042 1054.4 26.9127C 1053.85 27.0212 1053.53 27.4553 1053.31 27.9979L 1040.72 63.2665L 1028.46 27.9979C 1028.13 27.1297 1027.37 26.6957 1026.51 26.6957L 1015.65 26.6957C 1014.46 26.6957 1013.92 27.3468 1014.35 28.5405L 1032.91 78.5677C 1033.23 79.4359 1033.99 79.8699 1034.86 79.8699L 1045.71 79.8699C 1046.58 79.8699 1047.34 79.4359 1047.67 78.5677L 1060.36 45.3609L 1073.06 78.5677C 1073.39 79.4359 1074.15 79.8699 1075.01 79.8699L 1085.76 79.8699C 1086.63 79.8699 1087.39 79.4359 1087.71 78.5677L 1106.27 28.5405C 1106.7 27.3468 1106.16 26.6957 1104.97 26.6957Z"/>
<path id="path19_fill" d="M 1137.42 81.2807C 1152.72 81.2807 1164.98 69.018 1164.98 53.3913C 1164.98 37.7646 1152.72 25.5019 1137.42 25.5019C 1122.12 25.5019 1109.86 37.7646 1109.86 53.3913C 1109.86 69.018 1122.12 81.2807 1137.42 81.2807ZM 1137.42 68.0414C 1129.72 68.0414 1123.64 61.9643 1123.64 53.3913C 1123.64 44.8183 1129.72 38.7413 1137.42 38.7413C 1145.02 38.7413 1151.2 44.8183 1151.2 53.3913C 1151.2 61.9643 1145.02 68.0414 1137.42 68.0414Z"/>
<path id="path20_fill" d="M 1210.22 27.9979C 1208.71 26.6957 1206.1 25.5019 1203.06 25.5019C 1196.66 25.5019 1192.32 29.0831 1189.5 34.1835L 1189.06 28.3234C 1188.95 27.3468 1188.41 26.6957 1187.44 26.6957L 1176.91 26.6957C 1175.93 26.6957 1175.28 27.3468 1175.28 28.3234L 1175.28 78.2422C 1175.28 79.2188 1175.93 79.8699 1176.91 79.8699L 1187.98 79.8699C 1188.95 79.8699 1189.61 79.2188 1189.61 78.2422L 1189.61 50.0272C 1189.61 43.5161 1193.95 38.5242 1200.67 38.5242C 1202.74 38.5242 1204.04 38.9583 1205.12 39.2839C 1206.21 39.6094 1207.08 39.3924 1207.51 38.1987L 1210.77 30.1683C 1211.09 29.4086 1211.09 28.649 1210.22 27.9979Z"/>
<path id="path21_fill" d="M 1217.88 2.2789L 1217.88 78.2422C 1217.88 79.2188 1218.53 79.8699 1219.51 79.8699L 1230.58 79.8699C 1231.56 79.8699 1232.21 79.2188 1232.21 78.2422L 1232.21 2.2789C 1232.21 1.30223 1231.56 0.651114 1230.58 0.651114L 1219.51 0.651114C 1218.53 0.651114 1217.88 1.30223 1217.88 2.2789Z"/>
<path id="path22_fill" d="M 1296.47 0.651114L 1285.4 0.651114C 1284.42 0.651114 1283.77 1.30223 1283.77 2.2789L 1283.77 32.4472C 1279.87 28.3234 1274.66 25.5019 1268.36 25.5019C 1253.5 25.5019 1242.64 37.8731 1242.64 53.3913C 1242.64 68.9095 1253.5 81.2807 1268.36 81.2807C 1275.31 81.2807 1280.63 78.1336 1284.42 73.6844L 1284.86 78.2422C 1284.97 79.2188 1285.51 79.8699 1286.49 79.8699L 1296.47 79.8699C 1297.45 79.8699 1298.1 79.2188 1298.1 78.2422L 1298.1 2.2789C 1298.1 1.30223 1297.45 0.651114 1296.47 0.651114ZM 1270.1 68.2584C 1262.18 68.2584 1256.43 61.8558 1256.43 53.2828C 1256.43 44.8183 1262.18 38.5242 1270.1 38.5242C 1277.91 38.5242 1283.66 45.2524 1283.66 53.2828C 1283.66 61.3132 1277.91 68.2584 1270.1 68.2584Z"/>
<path id="path23_fill" d="M 1323.1 41.5628C 1323.1 38.8498 1325.6 37.005 1328.96 37.005C 1332.76 37.005 1335.26 38.4157 1339.38 41.1287C 1340.36 41.8883 1341.12 42.1053 1341.77 41.2372L 1345.89 35.8112C 1346.44 35.1601 1346.65 34.292 1346 33.5323C 1341.55 28.3234 1334.61 25.5019 1327.77 25.5019C 1318.22 25.5019 1309.32 31.4705 1309.32 41.6713C 1309.32 59.5769 1335.04 56.3213 1335.04 64.7858C 1335.04 68.1499 1331.68 69.2351 1328.2 69.2351C 1323.97 69.2351 1319.31 67.1732 1314.97 64.3517C 1313.99 63.5921 1313.23 63.3751 1312.58 64.2432L 1308.35 70.2117C 1307.91 70.8629 1307.69 71.6225 1308.35 72.3821C 1312.14 76.8314 1319.52 81.2807 1328.64 81.2807C 1338.41 81.2807 1348.93 75.3121 1348.93 65.0028C 1348.93 45.4694 1323.1 50.2443 1323.1 41.5628Z"/>
<path id="path24_fill" d="M 1365.46 81.2807C 1369.8 81.2807 1373.27 77.8081 1373.27 73.3588C 1373.27 69.018 1369.8 65.5454 1365.46 65.5454C 1361.01 65.5454 1357.53 69.018 1357.53 73.3588C 1357.53 77.8081 1361.01 81.2807 1365.46 81.2807Z"/>
<path id="path25_fill" d="M 320.594 140.648C 367.7 140.741 414.776 158.758 450.716 194.698C 483.084 227.066 500.914 268.466 504.207 310.785L 641.036 310.785C 635.851 138.264 494.367 0 320.589 0C 301.225 0.000330089 282.262 1.71749 263.843 5.00751C 261.212 5.47752 258.592 5.97962 255.983 6.5134C 109.894 36.4077 0 165.668 0 320.595C 0 494.264 138.092 635.681 310.463 641.032L 310.463 509.469C 266.541 507.156 223.288 489.225 189.739 455.676C 152.537 418.474 134.54 369.341 135.745 320.595C 136.875 274.909 154.873 229.564 189.739 194.698C 225.864 158.573 273.241 140.556 320.589 140.648L 320.594 140.648Z"/>
<path id="path26_fill" d="M 346.416 250.921C 373.441 277.946 373.441 321.763 346.416 348.788C 319.391 375.813 275.575 375.813 248.549 348.788C 221.524 321.763 221.524 277.946 248.549 250.921C 275.575 223.896 319.391 223.896 346.416 250.921Z"/>
<path id="path27_fill" fill-rule="evenodd" d="M 10.1542 188.833L 10.1542 320.437C 179.156 315.179 315.2 179.122 320.438 10.1147L 184.096 10.1147C 182.746 55.4849 164.756 100.452 130.127 135.081C 96.7695 168.439 53.818 186.356 10.1542 188.833Z"/>
<path id="path28_fill" d="M 166.4 241.4C 166.4 198.84 137.28 162.68 91.84 162.68C 46.4 162.68 12.8 198.84 12.8 244.92C 12.8 291 46.4 327.16 95.36 327.16C 118.08 327.16 138.56 318.2 153.6 303.16C 156.16 300.6 156.16 298.36 153.92 296.12L 139.84 282.36C 137.6 280.12 135.68 280.12 132.8 282.04C 121.92 289.72 112 292.92 99.52 292.92C 74.88 292.92 58.88 281.08 54.72 260.28L 155.2 260.28C 164.8 260.28 166.4 253.88 166.4 241.4ZM 92.16 198.52C 111.04 198.52 126.08 210.68 128.96 232.76L 54.08 232.76C 57.6 210.68 72.96 198.52 92.16 198.52ZM 327.605 317.24L 276.405 242.68L 325.045 171.96C 327.285 168.76 325.685 166.2 321.845 166.2L 284.725 166.2C 282.165 166.2 280.565 167.16 278.965 169.4L 252.405 210.68L 225.845 169.4C 224.245 167.16 222.645 166.2 220.085 166.2L 182.965 166.2C 179.125 166.2 177.525 168.76 179.765 171.96L 228.405 242.68L 177.205 317.24C 174.965 320.44 176.565 323 180.405 323L 217.525 323C 220.085 323 221.685 322.04 223.285 319.8L 252.405 274.68L 281.525 319.8C 283.125 322.04 284.725 323 287.285 323L 324.405 323C 328.245 323 329.845 320.44 327.605 317.24ZM 497.145 166.2L 467.705 166.2C 464.825 166.2 463.225 168.12 462.905 171L 461.945 185.72C 450.105 172.28 434.105 162.68 414.265 162.68C 370.425 162.68 338.425 199.16 338.425 244.92C 338.425 290.68 370.425 327.16 414.265 327.16C 434.745 327.16 450.425 317.88 461.625 304.76L 462.905 318.2C 463.225 321.08 464.825 323 467.705 323L 497.145 323C 500.025 323 501.945 321.08 501.945 318.2L 501.945 171C 501.945 168.12 500.025 166.2 497.145 166.2ZM 419.385 288.76C 396.025 288.76 379.065 269.88 379.065 244.6C 379.065 219.64 396.025 201.08 419.385 201.08C 442.425 201.08 459.385 220.92 459.385 244.6C 459.385 268.28 442.425 288.76 419.385 288.76ZM 691.208 166.2L 661.768 166.2C 658.888 166.2 657.288 168.12 656.967 171L 656.007 185.72C 644.167 172.28 628.167 162.68 608.328 162.68C 564.488 162.68 532.487 199.16 532.487 244.92C 532.487 290.68 564.488 327.16 608.328 327.16C 627.528 327.16 642.568 319.16 653.767 307.32L 653.767 379C 653.767 381.88 655.688 383.8 658.567 383.8L 691.208 383.8C 694.088 383.8 696.007 381.88 696.007 379L 696.007 171C 696.007 168.12 694.088 166.2 691.208 166.2ZM 613.448 288.76C 590.087 288.76 573.127 269.88 573.127 244.6C 573.127 219.64 590.087 201.08 613.448 201.08C 636.488 201.08 653.448 220.92 653.448 244.6C 653.448 268.28 636.488 288.76 613.448 288.76ZM 873.43 166.2L 840.79 166.2C 837.91 166.2 835.99 168.12 835.99 171L 835.99 257.72C 835.99 268.92 824.79 288.12 802.07 288.12C 787.03 288.12 771.99 279.16 771.99 253.24L 771.99 171C 771.99 168.12 770.07 166.2 767.19 166.2L 734.55 166.2C 731.67 166.2 729.75 168.12 729.75 171L 729.75 260.92C 729.75 302.84 754.07 327.16 789.27 327.16C 809.11 327.16 825.11 315.96 835.99 300.6L 837.27 318.2C 837.59 321.08 839.19 323 842.07 323L 873.43 323C 876.31 323 878.23 321.08 878.23 318.2L 878.23 171C 878.23 168.12 876.31 166.2 873.43 166.2ZM 1067.46 166.2L 1038.02 166.2C 1035.14 166.2 1033.54 168.12 1033.22 171L 1032.26 185.72C 1020.42 172.28 1004.42 162.68 984.578 162.68C 940.738 162.68 908.737 199.16 908.737 244.92C 908.737 290.68 940.738 327.16 984.578 327.16C 1005.06 327.16 1020.74 317.88 1031.94 304.76L 1033.22 318.2C 1033.54 321.08 1035.14 323 1038.02 323L 1067.46 323C 1070.34 323 1072.26 321.08 1072.26 318.2L 1072.26 171C 1072.26 168.12 1070.34 166.2 1067.46 166.2ZM 989.698 288.76C 966.337 288.76 949.377 269.88 949.377 244.6C 949.377 219.64 966.337 201.08 989.698 201.08C 1012.74 201.08 1029.7 220.92 1029.7 244.6C 1029.7 268.28 1012.74 288.76 989.698 288.76ZM 1210.64 170.04C 1206.16 166.2 1198.48 162.68 1189.52 162.68C 1170.64 162.68 1157.84 173.24 1149.52 188.28L 1148.24 171C 1147.92 168.12 1146.32 166.2 1143.44 166.2L 1112.4 166.2C 1109.52 166.2 1107.6 168.12 1107.6 171L 1107.6 318.2C 1107.6 321.08 1109.52 323 1112.4 323L 1145.04 323C 1147.92 323 1149.84 321.08 1149.84 318.2L 1149.84 235C 1149.84 215.8 1162.64 201.08 1182.48 201.08C 1188.56 201.08 1192.4 202.36 1195.6 203.32C 1198.8 204.28 1201.36 203.64 1202.64 200.12L 1212.24 176.44C 1213.2 174.2 1213.2 171.96 1210.64 170.04ZM 1387.47 317.24L 1322.83 231.16L 1378.19 171.96C 1381.07 169.08 1379.79 166.2 1375.62 166.2L 1338.82 166.2C 1336.58 166.2 1334.67 166.84 1333.07 168.76L 1275.47 230.84L 1275.47 94.2C 1275.47 91.32 1273.54 89.4 1270.67 89.4L 1238.03 89.4C 1235.15 89.4 1233.22 91.32 1233.22 94.2L 1233.22 318.2C 1233.22 321.08 1235.15 323 1238.03 323L 1270.67 323C 1273.54 323 1275.47 321.08 1275.47 318.2L 1275.47 281.72L 1297.22 258.68L 1343.63 320.12C 1345.23 322.36 1346.82 323 1349.39 323L 1384.58 323C 1388.43 323 1389.71 320.44 1387.47 317.24Z"/>
</defs>
</svg>
